<svg width="32" height="32" viewBox="0 0 32 32" fill="none" xmlns="http://www.w3.org/2000/svg">
<path d="M15.9987 1.33325C24.0987 1.33325 30.6654 7.89992 30.6654 15.9999C30.6654 24.0999 24.0987 30.6666 15.9987 30.6666C7.8987 30.6666 1.33203 24.0999 1.33203 15.9999C1.33203 7.89992 7.8987 1.33325 15.9987 1.33325ZM3.33203 15.9999C3.33203 19.3593 4.66655 22.5811 7.04201 24.9566C9.41747 27.3321 12.6393 28.6666 15.9987 28.6666C19.3581 28.6666 22.5799 27.3321 24.9554 24.9566C27.3308 22.5811 28.6654 19.3593 28.6654 15.9999C28.6654 12.6405 27.3308 9.41869 24.9554 7.04323C22.5799 4.66777 19.3581 3.33325 15.9987 3.33325C12.6393 3.33325 9.41747 4.66777 7.04201 7.04323C4.66655 9.41869 3.33203 12.6405 3.33203 15.9999Z" fill="#888888"/>
<path d="M14.6291 11.0201C14.3497 11.2121 14.1258 11.4742 13.9797 11.7801C13.8558 12.0076 13.6484 12.1782 13.4012 12.2558C13.1541 12.3334 12.8864 12.3121 12.6546 12.1963C12.4228 12.0805 12.2451 11.8793 12.1587 11.635C12.0724 11.3907 12.0842 11.1225 12.1917 10.8867C12.4584 10.3507 12.8757 9.78541 13.5211 9.35608C14.1717 8.92008 14.9944 8.66675 16.0024 8.66675C16.8797 8.66675 17.8277 8.92675 18.5811 9.49208C19.0011 9.7991 19.3417 10.202 19.5745 10.6672C19.8073 11.1324 19.9257 11.6465 19.9197 12.1667C19.9197 13.5441 19.2357 14.4601 18.5504 15.1201C18.2971 15.3641 18.0184 15.5974 17.7784 15.7974L17.5824 15.9614C17.3768 16.1296 17.183 16.3118 17.0024 16.5067V18.3334C17.0024 18.5986 16.8971 18.853 16.7095 19.0405C16.522 19.2281 16.2676 19.3334 16.0024 19.3334C15.7372 19.3334 15.4828 19.2281 15.2953 19.0405C15.1078 18.853 15.0024 18.5986 15.0024 18.3334V16.3694C15.0024 16.0534 15.0917 15.6974 15.3317 15.3881C15.6251 15.0147 15.9797 14.6987 16.2891 14.4361L16.5331 14.2321L16.5344 14.2307C16.7637 14.0401 16.9664 13.8707 17.1611 13.6814C17.6517 13.2081 17.9197 12.7801 17.9197 12.1667C17.9256 11.9571 17.8795 11.7492 17.7855 11.5617C17.6915 11.3742 17.5526 11.2128 17.3811 11.0921C17.0237 10.8241 16.5144 10.6667 16.0024 10.6667C15.3437 10.6667 14.9171 10.8281 14.6291 11.0201ZM17.3357 22.6667C17.3357 23.0204 17.1953 23.3595 16.9452 23.6096C16.6952 23.8596 16.356 24.0001 16.0024 24.0001C15.6488 24.0001 15.3096 23.8596 15.0596 23.6096C14.8096 23.3595 14.6691 23.0204 14.6691 22.6667C14.6691 22.3131 14.8096 21.974 15.0596 21.7239C15.3096 21.4739 15.6488 21.3334 16.0024 21.3334C16.356 21.3334 16.6952 21.4739 16.9452 21.7239C17.1953 21.974 17.3357 22.3131 17.3357 22.6667Z" fill="#888888"/>
</svg>
